<?xml version="1.0" standalone="no"?>
<!DOCTYPE svg PUBLIC "-//W3C//DTD SVG 20010904//EN"
 "http://www.w3.org/TR/2001/REC-SVG-20010904/DTD/svg10.dtd">
<svg version="1.0" xmlns="http://www.w3.org/2000/svg"
 width="260.000000pt" height="260.000000pt" viewBox="0 0 260.000000 260.000000"
 preserveAspectRatio="xMidYMid meet">
<metadata>
Created by potrace 1.11, written by Peter Selinger 2001-2013
</metadata>
<g transform="translate(0.000000,260.000000) scale(0.100000,-0.100000)"
fill="#000000" stroke="none">
<path d="M600 2597 c0 -2 16 -37 36 -78 20 -41 51 -105 69 -144 18 -38 59
-124 90 -190 117 -245 168 -352 202 -425 36 -77 114 -240 164 -344 16 -33 29
-66 29 -75 0 -12 -61 -148 -263 -581 -21 -47 -77 -168 -124 -270 -47 -102 -88
-188 -92 -193 -4 -4 -29 39 -56 95 -26 57 -77 164 -113 238 -35 74 -81 171
-102 215 -21 44 -66 139 -100 210 -34 72 -79 166 -100 210 l-38 81 -99 -1
c-80 -1 -97 -4 -95 -16 2 -8 60 -133 129 -279 70 -146 151 -317 181 -380 30
-63 90 -189 133 -280 44 -91 103 -215 131 -277 l53 -112 73 0 73 -1 23 53 c13
28 40 87 60 129 35 77 47 101 168 363 33 72 76 164 95 205 20 41 62 133 95
204 32 71 64 138 69 149 9 16 19 3 66 -94 30 -63 64 -134 75 -159 11 -25 56
-119 99 -209 44 -90 79 -164 79 -166 0 -1 44 -94 98 -206 54 -112 105 -219
113 -237 14 -32 14 -32 85 -32 l72 0 27 58 c15 31 69 147 120 257 51 110 111
238 132 285 22 47 64 137 93 200 29 63 77 167 107 230 74 154 131 282 135 300
2 12 -14 15 -95 15 l-98 1 -31 -66 c-45 -95 -89 -192 -188 -405 -48 -104 -107
-230 -130 -280 -23 -49 -51 -110 -62 -135 -55 -121 -80 -172 -83 -168 -4 3
-206 426 -280 583 -18 39 -72 151 -120 250 -48 99 -87 189 -87 200 0 11 29 82
66 158 36 76 66 140 66 142 0 2 31 70 70 151 38 80 70 148 70 150 0 2 27 60
60 130 33 69 60 128 60 129 0 2 20 45 44 96 105 224 128 275 137 297 8 22 8
22 -94 22 l-102 -1 -130 -282 c-71 -155 -152 -331 -181 -392 -28 -60 -79 -172
-114 -248 l-63 -138 -37 78 c-20 43 -49 105 -65 138 -15 33 -66 138 -111 234
-46 95 -84 174 -84 176 0 2 -45 96 -100 210 -55 114 -100 211 -100 216 0 5
-47 9 -105 9 -58 0 -105 -2 -105 -3z"/>
</g>
</svg>
