<svg xmlns="http://www.w3.org/2000/svg" viewBox="0 0 656.2 334.38"><defs><style>.a{opacity:0.3;}.ah,.aj,.b,.c,.d,.e,.k{fill:#e55250;}.c{opacity:0.6;}.d{opacity:0.4;}.e{opacity:0.2;}.aj,.f,.l{font-size:14.98px;}.aj,.f,.l,.n{font-family:Futura-Medium, Futura;}.g{letter-spacing:-0.03em;}.h{letter-spacing:-0.02em;}.i{letter-spacing:-0.02em;}.ak,.j,.l,.n{fill:#fff;}.ah,.k,.m{stroke:#e55250;}.ah,.ai,.ak,.k,.m{stroke-miterlimit:10;}.k{stroke-width:1.13px;}.ai,.m{fill:none;}.ah,.ai,.ak,.m{stroke-width:2.23px;}.n{font-size:12.6px;}.o{letter-spacing:-0.02em;}.p{letter-spacing:-0.02em;}.q{letter-spacing:0em;}.r{letter-spacing:0.02em;}.s{letter-spacing:-0.01em;}.t{letter-spacing:-0.04em;}.u{letter-spacing:0em;}.v{letter-spacing:0.03em;}.w{letter-spacing:-0.02em;}.x{letter-spacing:0.01em;}.y{letter-spacing:-0.02em;}.z{letter-spacing:-0.02em;}.aa{letter-spacing:0.03em;}.ab{letter-spacing:0.02em;}.ac{letter-spacing:0.01em;}.ad{letter-spacing:0.01em;}.ae{letter-spacing:0.01em;}.af{letter-spacing:0.02em;}.ag{letter-spacing:0.01em;}.ai,.ak{stroke:#fff;}</style></defs><title>area-51-persona-2</title><rect class="b" y="175.97" width="433.91" height="156.28"/><rect class="c" y="117.31" width="433.91" height="48.65"/><rect class="d" y="58.66" width="433.91" height="48.65"/><rect class="e" width="433.91" height="48.65"/><text class="f" transform="translate(441.71 30.35)">35 SCREENER SU<tspan class="g" x="122.83" y="0">R</tspan><tspan x="131.44" y="0">VE</tspan><tspan class="h" x="150.04" y="0">Y</tspan><tspan x="158.68" y="0">S</tspan></text><text class="f" transform="translate(441.71 89.01)">7 USER INTE<tspan class="g" x="88.52" y="0">R</tspan><tspan x="97.13" y="0">VIE</tspan><tspan class="i" x="120.14" y="0">W</tspan><tspan x="135.74" y="0">S</tspan></text><circle class="j" cx="288.74" cy="78.24" r="4.38"/><path class="j" d="M288.26,81.61s-6.39.38-7.53,3.53v6.39h15.06V85.14C294.64,82,288.26,81.61,288.26,81.61Z" transform="translate(0.48)"/><circle class="j" cx="306.64" cy="78.24" r="4.38"/><path class="j" d="M306.16,81.61s-6.39.38-7.53,3.53v6.39h15.06V85.14C312.55,82,306.16,81.61,306.16,81.61Z" transform="translate(0.48)"/><circle class="j" cx="324.54" cy="78.24" r="4.38"/><path class="j" d="M324.06,81.61s-6.39.38-7.53,3.53v6.39h15.06V85.14C330.45,82,324.06,81.61,324.06,81.61Z" transform="translate(0.48)"/><circle class="j" cx="342.44" cy="78.32" r="4.38"/><path class="j" d="M342,81.69s-6.39.38-7.53,3.53v6.39H349.5V85.22C348.35,82.07,342,81.69,342,81.69Z" transform="translate(0.48)"/><circle class="j" cx="360.35" cy="78.32" r="4.38"/><path class="j" d="M359.87,81.69s-6.39.38-7.53,3.53v6.39H367.4V85.22C366.26,82.07,359.87,81.69,359.87,81.69Z" transform="translate(0.48)"/><circle class="j" cx="378.25" cy="78.32" r="4.38"/><path class="j" d="M377.77,81.69s-6.39.38-7.53,3.53v6.39H385.3V85.22C384.16,82.07,377.77,81.69,377.77,81.69Z" transform="translate(0.48)"/><circle class="j" cx="270.83" cy="78.28" r="4.38"/><path class="j" d="M270.36,81.65s-6.39.38-7.53,3.53v6.39h15.06V85.18C276.74,82,270.36,81.65,270.36,81.65Z" transform="translate(0.48)"/><circle class="k" cx="412.68" cy="24.32" r="10.47"/><text class="l" transform="translate(408.18 30.35)">1</text><circle class="k" cx="412.77" cy="82.98" r="10.47"/><text class="l" transform="translate(408.27 88.01)">2</text><line class="m" x1="412.68" y1="34.79" x2="412.68" y2="69.53"/><polyline class="m" points="407.61 64.3 412.84 69.53 417.91 64.46"/><circle class="k" cx="412.77" cy="141.44" r="10.47"/><text class="l" transform="translate(408.27 146.66)">3</text><circle class="j" cx="288.74" cy="29.45" r="4.38"/><path class="j" d="M288.26,32.83s-6.39.38-7.53,3.53v6.39h15.06V36.35C294.64,33.21,288.26,32.83,288.26,32.83Z" transform="translate(0.48)"/><circle class="j" cx="306.64" cy="29.45" r="4.38"/><path class="j" d="M306.16,32.83s-6.39.38-7.53,3.53v6.39h15.06V36.35C312.55,33.21,306.16,32.83,306.16,32.83Z" transform="translate(0.48)"/><circle class="j" cx="324.54" cy="29.45" r="4.38"/><path class="j" d="M324.06,32.83s-6.39.38-7.53,3.53v6.39h15.06V36.35C330.45,33.21,324.06,32.83,324.06,32.83Z" transform="translate(0.48)"/><circle class="j" cx="342.44" cy="29.53" r="4.38"/><path class="j" d="M342,32.9s-6.39.38-7.53,3.53v6.39H349.5V36.43C348.35,33.29,342,32.9,342,32.9Z" transform="translate(0.48)"/><circle class="j" cx="360.35" cy="29.53" r="4.38"/><path class="j" d="M359.87,32.9s-6.39.38-7.53,3.53v6.39H367.4V36.43C366.26,33.29,359.87,32.9,359.87,32.9Z" transform="translate(0.48)"/><circle class="j" cx="378.25" cy="29.53" r="4.38"/><path class="j" d="M377.77,32.9s-6.39.38-7.53,3.53v6.39H385.3V36.43C384.16,33.29,377.77,32.9,377.77,32.9Z" transform="translate(0.48)"/><circle class="j" cx="270.83" cy="29.49" r="4.38"/><path class="j" d="M270.36,32.86s-6.39.38-7.53,3.53v6.39h15.06V36.39C276.74,33.25,270.36,32.86,270.36,32.86Z" transform="translate(0.48)"/><circle class="j" cx="181.32" cy="29.41" r="4.38"/><path class="j" d="M180.84,32.79s-6.39.38-7.53,3.53V42.7h15.06V36.31C187.23,33.17,180.84,32.79,180.84,32.79Z" transform="translate(0.48)"/><circle class="j" cx="199.22" cy="29.41" r="4.38"/><path class="j" d="M198.74,32.79s-6.39.38-7.53,3.53V42.7h15.06V36.31C205.13,33.17,198.74,32.79,198.74,32.79Z" transform="translate(0.48)"/><circle class="j" cx="217.12" cy="29.41" r="4.38"/><path class="j" d="M216.65,32.79s-6.39.38-7.53,3.53V42.7h15.06V36.31C223,33.17,216.65,32.79,216.65,32.79Z" transform="translate(0.48)"/><circle class="j" cx="235.03" cy="29.49" r="4.38"/><path class="j" d="M234.55,32.86s-6.39.38-7.53,3.53v6.39h15.06V36.39C240.94,33.25,234.55,32.86,234.55,32.86Z" transform="translate(0.48)"/><circle class="j" cx="252.93" cy="29.49" r="4.38"/><path class="j" d="M252.45,32.86s-6.39.38-7.53,3.53v6.39H260V36.39C258.84,33.25,252.45,32.86,252.45,32.86Z" transform="translate(0.48)"/><circle class="j" cx="270.83" cy="29.49" r="4.38"/><path class="j" d="M270.36,32.86s-6.39.38-7.53,3.53v6.39h15.06V36.39C276.74,33.25,270.36,32.86,270.36,32.86Z" transform="translate(0.48)"/><circle class="j" cx="163.42" cy="29.45" r="4.38"/><path class="j" d="M162.94,32.83s-6.39.38-7.53,3.53v6.39h15.06V36.35C169.33,33.21,162.94,32.83,162.94,32.83Z" transform="translate(0.48)"/><circle class="j" cx="127.35" cy="29.49" r="4.38"/><path class="j" d="M126.87,32.86s-6.39.38-7.53,3.53v6.39H134.4V36.39C133.26,33.25,126.87,32.86,126.87,32.86Z" transform="translate(0.48)"/><circle class="j" cx="145.25" cy="29.49" r="4.38"/><path class="j" d="M144.77,32.86s-6.39.38-7.53,3.53v6.39H152.3V36.39C151.16,33.25,144.77,32.86,144.77,32.86Z" transform="translate(0.48)"/><circle class="j" cx="288.74" cy="9.42" r="4.38"/><path class="j" d="M288.26,12.79s-6.39.38-7.53,3.53V22.7h15.06V16.32C294.64,13.17,288.26,12.79,288.26,12.79Z" transform="translate(0.48)"/><circle class="j" cx="306.64" cy="9.42" r="4.38"/><path class="j" d="M306.16,12.79s-6.39.38-7.53,3.53V22.7h15.06V16.32C312.55,13.17,306.16,12.79,306.16,12.79Z" transform="translate(0.48)"/><circle class="j" cx="324.54" cy="9.42" r="4.38"/><path class="j" d="M324.06,12.79s-6.39.38-7.53,3.53V22.7h15.06V16.32C330.45,13.17,324.06,12.79,324.06,12.79Z" transform="translate(0.48)"/><circle class="j" cx="342.44" cy="9.5" r="4.38"/><path class="j" d="M342,12.87s-6.39.38-7.53,3.53v6.39H349.5V16.4C348.35,13.25,342,12.87,342,12.87Z" transform="translate(0.48)"/><circle class="j" cx="360.35" cy="9.5" r="4.38"/><path class="j" d="M359.87,12.87s-6.39.38-7.53,3.53v6.39H367.4V16.4C366.26,13.25,359.87,12.87,359.87,12.87Z" transform="translate(0.48)"/><circle class="j" cx="378.25" cy="9.5" r="4.38"/><path class="j" d="M377.77,12.87s-6.39.38-7.53,3.53v6.39H385.3V16.4C384.16,13.25,377.77,12.87,377.77,12.87Z" transform="translate(0.48)"/><circle class="j" cx="270.83" cy="9.46" r="4.38"/><path class="j" d="M270.36,12.83s-6.39.38-7.53,3.53v6.39h15.06V16.36C276.74,13.21,270.36,12.83,270.36,12.83Z" transform="translate(0.48)"/><circle class="j" cx="181.32" cy="9.38" r="4.38"/><path class="j" d="M180.84,12.75s-6.39.38-7.53,3.53v6.39h15.06V16.28C187.23,13.13,180.84,12.75,180.84,12.75Z" transform="translate(0.48)"/><circle class="j" cx="199.22" cy="9.38" r="4.38"/><path class="j" d="M198.74,12.75s-6.39.38-7.53,3.53v6.39h15.06V16.28C205.13,13.13,198.74,12.75,198.74,12.75Z" transform="translate(0.48)"/><circle class="j" cx="217.12" cy="9.38" r="4.38"/><path class="j" d="M216.65,12.75s-6.39.38-7.53,3.53v6.39h15.06V16.28C223,13.13,216.65,12.75,216.65,12.75Z" transform="translate(0.48)"/><circle class="j" cx="235.03" cy="9.46" r="4.38"/><path class="j" d="M234.55,12.83s-6.39.38-7.53,3.53v6.39h15.06V16.36C240.94,13.21,234.55,12.83,234.55,12.83Z" transform="translate(0.48)"/><circle class="j" cx="252.93" cy="9.46" r="4.38"/><path class="j" d="M252.45,12.83s-6.39.38-7.53,3.53v6.39H260V16.36C258.84,13.21,252.45,12.83,252.45,12.83Z" transform="translate(0.48)"/><circle class="j" cx="270.83" cy="9.46" r="4.38"/><path class="j" d="M270.36,12.83s-6.39.38-7.53,3.53v6.39h15.06V16.36C276.74,13.21,270.36,12.83,270.36,12.83Z" transform="translate(0.48)"/><circle class="j" cx="163.42" cy="9.42" r="4.38"/><path class="j" d="M162.94,12.79s-6.39.38-7.53,3.53V22.7h15.06V16.32C169.33,13.17,162.94,12.79,162.94,12.79Z" transform="translate(0.48)"/><circle class="j" cx="73.64" cy="9.38" r="4.38"/><path class="j" d="M73.16,12.75s-6.39.38-7.53,3.53v6.39H80.69V16.28C79.55,13.13,73.16,12.75,73.16,12.75Z" transform="translate(0.48)"/><circle class="j" cx="91.54" cy="9.38" r="4.38"/><path class="j" d="M91.06,12.75s-6.39.38-7.53,3.53v6.39H98.6V16.28C97.45,13.13,91.06,12.75,91.06,12.75Z" transform="translate(0.48)"/><circle class="j" cx="109.44" cy="9.38" r="4.38"/><path class="j" d="M109,12.75s-6.39.38-7.53,3.53v6.39H116.5V16.28C115.35,13.13,109,12.75,109,12.75Z" transform="translate(0.48)"/><circle class="j" cx="127.35" cy="9.46" r="4.38"/><path class="j" d="M126.87,12.83s-6.39.38-7.53,3.53v6.39H134.4V16.36C133.26,13.21,126.87,12.83,126.87,12.83Z" transform="translate(0.48)"/><circle class="j" cx="145.25" cy="9.46" r="4.38"/><path class="j" d="M144.77,12.83s-6.39.38-7.53,3.53v6.39H152.3V16.36C151.16,13.21,144.77,12.83,144.77,12.83Z" transform="translate(0.48)"/><circle class="j" cx="163.15" cy="9.46" r="4.38"/><path class="j" d="M162.67,12.83s-6.39.38-7.53,3.53v6.39h15.06V16.36C169.06,13.21,162.67,12.83,162.67,12.83Z" transform="translate(0.48)"/><circle class="j" cx="55.74" cy="9.42" r="4.38"/><path class="j" d="M55.26,12.79s-6.39.38-7.53,3.53V22.7H62.79V16.32C61.65,13.17,55.26,12.79,55.26,12.79Z" transform="translate(0.48)"/><circle class="j" cx="37.83" cy="9.46" r="4.38"/><path class="j" d="M37.36,12.83s-6.39.38-7.53,3.53v6.39H44.89V16.36C43.74,13.21,37.36,12.83,37.36,12.83Z" transform="translate(0.48)"/><circle class="j" cx="378.25" cy="136.99" r="4.38"/><path class="j" d="M377.77,140.36s-6.39.38-7.53,3.53v6.39H385.3v-6.39C384.16,140.74,377.77,140.36,377.77,140.36Z" transform="translate(0.48)"/><text class="n" transform="translate(225.05 203.69)"> <tspan class="o" x="3.89" y="0">R</tspan><tspan x="11.27" y="0">eplace old, </tspan><tspan class="p" x="79.4" y="0">w</tspan><tspan class="q" x="88.92" y="0">o</tspan><tspan class="r" x="96.49" y="0">r</tspan><tspan x="101.4" y="0">n fu</tspan><tspan class="r" x="122.8" y="0">r</tspan><tspan x="127.7" y="0">nitu</tspan><tspan class="s" x="148.06" y="0">r</tspan><tspan x="152.69" y="0">e</tspan></text><text class="f" transform="translate(441.71 236.16)">G<tspan class="t" x="12.61" y="0">O</tspan><tspan x="25.43" y="0">A</tspan><tspan class="u" x="36.52" y="0">L</tspan><tspan x="43.2" y="0">S</tspan><tspan x="0" y="20.4">&amp; </tspan><tspan x="0" y="40.8">NEEDS</tspan></text><text class="n" transform="translate(172.83 310.34)">Qui<tspan class="v" x="21.26" y="0">c</tspan><tspan x="27.59" y="0">k and easy shopping </tspan><tspan class="w" x="150.22" y="0">e</tspan><tspan x="156.95" y="0">xpe</tspan><tspan class="r" x="178.51" y="0">r</tspan><tspan x="183.41" y="0">ience</tspan></text><text class="n" transform="translate(62.08 239.76)">Must h<tspan class="x" x="38.34" y="0">a</tspan><tspan class="y" x="46" y="0">v</tspan><tspan class="q" x="52.12" y="0">e </tspan><tspan class="z" x="62.98" y="0">e</tspan><tspan class="o" x="69.73" y="0">y</tspan><tspan x="76.38" y="0">ecat</tspan><tspan class="aa" x="100.35" y="0">c</tspan><tspan x="106.68" y="0">hing pieces </tspan><tspan class="ab" x="174.71" y="0">t</tspan><tspan x="178.41" y="0">hat h</tspan><tspan class="ac" x="207.11" y="0">a</tspan><tspan class="z" x="214.78" y="0">v</tspan><tspan x="220.89" y="0">e em</tspan><tspan class="ad" x="248.69" y="0">o</tspan><tspan x="256.34" y="0">tional </tspan><tspan class="z" x="291.98" y="0">v</tspan><tspan x="298.1" y="0">alue</tspan></text><text class="n" transform="translate(140.06 275.62)"><tspan class="ae">N</tspan><tspan x="10.78" y="0">eeds </tspan><tspan class="ae" x="41.28" y="0">q</tspan><tspan class="q" x="48.97" y="0">uality pieces </tspan><tspan class="af" x="123.49" y="0">t</tspan><tspan class="q" x="127.19" y="0">hat will last 5+ </tspan><tspan class="o" x="214.62" y="0">y</tspan><tspan x="221.26" y="0">ears</tspan></text><text class="f" transform="translate(441.71 147.63)">1 PERSO<tspan class="ag" x="61.55" y="0">N</tspan><tspan x="74.28" y="0">A</tspan></text><line class="m" x1="412.59" y1="93.16" x2="412.59" y2="127.89"/><polyline class="m" points="407.53 122.66 412.76 127.89 417.83 122.83"/><polyline class="ah" points="412.8 175.96 412.8 168.56 412.8 151.91"/><polyline class="ai" points="407.65 232.44 412.88 237.67 417.95 232.6"/><circle class="j" cx="413.68" cy="250.78" r="10.47"/><text class="aj" transform="translate(409.18 256)">4</text><polyline class="ak" points="412.8 236.44 412.8 217.85 412.8 175.97"/></svg>